<svg width="25" height="22" viewBox="0 0 25 22" fill="none" xmlns="http://www.w3.org/2000/svg">
<path d="M23.2833 21.0665C23.15 21.0665 23.0167 21.0332 22.9 20.9832L20.4667 19.7665C18.8833 18.9665 17.1 18.5498 15.3333 18.5498H4.3C2.21666 18.5498 0.516663 16.8498 0.516663 14.7665V4.69984C0.516663 2.6165 2.21666 0.916504 4.3 0.916504H19.2C21.2833 0.916504 22.9833 2.6165 22.9833 4.69984V12.5498C22.9833 13.7665 23.1 14.9832 23.3333 16.1665L24.1 20.0332C24.1667 20.3498 24.0333 20.6832 23.7833 20.8832C23.65 21.0165 23.4667 21.0665 23.2833 21.0665ZM4.3 2.33317C2.98333 2.33317 1.91666 3.39984 1.91666 4.7165V14.7832C1.91666 16.0998 2.98333 17.1665 4.3 17.1665H15.3167C17.3 17.1665 19.3 17.6332 21.0833 18.5332L22.5333 19.2498L21.9833 16.4665C21.7333 15.1832 21.6 13.8832 21.6 12.5665V4.69984C21.6 3.38317 20.5333 2.3165 19.2167 2.3165H4.3V2.33317Z" fill="#349878"/>
<path d="M7.33334 10.1333C7.1 9.74993 7.23334 9.24993 7.61667 9.01659L12.9 5.88326C13.2833 5.64993 13.7833 5.78326 14.0167 6.1666C14.25 6.54993 14.1167 7.04993 13.7333 7.28326L8.45 10.4166C8.06667 10.6499 7.56667 10.5166 7.33334 10.1333Z" fill="#349878"/>
<path d="M9.28335 13.3833C9.05001 12.9999 9.18335 12.4999 9.56668 12.2666L14.8333 9.13326C15.2167 8.89993 15.7167 9.03326 15.95 9.4166C16.1833 9.79993 16.05 10.2999 15.6667 10.5333L10.4 13.6666C10 13.8999 9.50001 13.7833 9.28335 13.3833Z" fill="#349878"/>
</svg>
