<svg width="100" height="22" viewBox="0 0 100 22" fill="none" xmlns="http://www.w3.org/2000/svg">
<path d="M23.2833 21.0665C23.15 21.0665 23.0167 21.0332 22.9 20.9832L20.4667 19.7665C18.8833 18.9665 17.1 18.5498 15.3333 18.5498H4.3C2.21666 18.5498 0.516663 16.8498 0.516663 14.7665V4.69984C0.516663 2.6165 2.21666 0.916504 4.3 0.916504H19.2C21.2833 0.916504 22.9833 2.6165 22.9833 4.69984V12.5498C22.9833 13.7665 23.1 14.9832 23.3333 16.1665L24.1 20.0332C24.1667 20.3498 24.0333 20.6832 23.7833 20.8832C23.65 21.0165 23.4667 21.0665 23.2833 21.0665ZM4.3 2.33317C2.98333 2.33317 1.91666 3.39984 1.91666 4.7165V14.7832C1.91666 16.0998 2.98333 17.1665 4.3 17.1665H15.3167C17.3 17.1665 19.3 17.6332 21.0833 18.5332L22.5333 19.2498L21.9833 16.4665C21.7333 15.1832 21.6 13.8832 21.6 12.5665V4.69984C21.6 3.38317 20.5333 2.3165 19.2167 2.3165H4.3V2.33317Z" fill="#349878"/>
<path d="M7.33334 10.1333C7.1 9.74993 7.23334 9.24993 7.61667 9.01659L12.9 5.88326C13.2833 5.64993 13.7833 5.78326 14.0167 6.1666C14.25 6.54993 14.1167 7.04993 13.7333 7.28326L8.45 10.4166C8.06667 10.6499 7.56667 10.5166 7.33334 10.1333Z" fill="#349878"/>
<path d="M9.28335 13.3833C9.05001 12.9999 9.18335 12.4999 9.56668 12.2666L14.8333 9.13326C15.2167 8.89993 15.7167 9.03326 15.95 9.4166C16.1833 9.79993 16.05 10.2999 15.6667 10.5333L10.4 13.6666C10 13.8999 9.50001 13.7833 9.28335 13.3833Z" fill="#349878"/>
<path d="M30.6333 4.9165H35.6333C36.6167 4.9165 37.45 5.0665 38.1167 5.3665C38.7833 5.6665 39.2833 6.08317 39.6 6.6165C39.9167 7.14984 40.0833 7.74984 40.0833 8.4165C40.0833 9.13317 39.9 9.74984 39.55 10.2832C39.2 10.8165 38.6667 11.2165 37.9667 11.4998L40.5 15.5832H37.7833L35.6167 11.9498H33.1667V15.5832H30.65V4.9165H30.6333ZM35.6333 9.89984C36.2667 9.89984 36.7333 9.7665 37.0667 9.49984C37.4 9.23317 37.55 8.88317 37.55 8.4165C37.55 7.94984 37.3833 7.58317 37.0667 7.34984C36.75 7.09984 36.2667 6.98317 35.6333 6.98317H33.15V9.9165H35.6333V9.89984Z" fill="#349878"/>
<path d="M45.8167 4.9165H48.95L52.9833 15.5832H50.4L49.6167 13.4832H45.1L44.3167 15.5832H41.7333L45.8167 4.9165ZM48.95 11.5332L47.4 7.3665L45.85 11.5332H48.95Z" fill="#349878"/>
<path d="M54.6833 4.9165H59.7167C60.7 4.9165 61.5334 5.0665 62.2 5.3665C62.8667 5.6665 63.35 6.08317 63.6833 6.6165C64 7.14984 64.1667 7.74984 64.1667 8.4165C64.1667 9.08317 64 9.68317 63.6833 10.2165C63.3667 10.7498 62.8667 11.1665 62.2 11.4832C61.5334 11.7998 60.7167 11.9498 59.7167 11.9498H57.2V15.5832H54.6833V4.9165ZM59.7 9.89984C60.3334 9.89984 60.8 9.7665 61.1333 9.5165C61.45 9.24984 61.6167 8.89984 61.6167 8.43317C61.6167 7.9665 61.4667 7.59984 61.15 7.3665C60.8333 7.1165 60.35 6.99984 59.7167 6.99984H57.2V9.93317H59.7V9.89984Z" fill="#349878"/>
<path d="M66.4333 4.9165H68.95V15.5832H66.4333V4.9165Z" fill="#349878"/>
<path d="M71.2333 4.9165H73.6833L76.5167 12.3498L79.1 4.9165H80.8333L83.4167 12.3498L86.25 4.9165H88.7L84.6833 15.5832H82.1333L79.9667 9.49984L77.8 15.5832H75.2333L71.2333 4.9165Z" fill="#349878"/>
<path d="M92.3 4.9165H95.4333L99.4667 15.5832H96.8833L96.1 13.4832H91.5833L90.8 15.5832H88.2167L92.3 4.9165ZM95.4167 11.5332L93.8667 7.3665L92.3167 11.5332H95.4167Z" fill="#349878"/>
</svg>
